# xmcd
#
# Track frame offsets: 
#        150
#        14550
#        39300
#        58500
#        80475
#        95775
#        113850
#        138900
#        160800
#        179100
#        215475
#        237900
#        254745
#
# Disc length: 3812 seconds
#
# Revision: 0
# Processed by: cddbd v1.4PL0 Copyright (c) Steve Scherf et al.
# Submitted via: ExactAudioCopy v0.90b4
#
DISCID=bb0ee20d
DTITLE=Van Morrison - An Evening In Brighton, disc 1
DYEAR=1994
DGENRE=Celtic
TTITLE0=I Love The Life I Live
TTITLE1=The New Symphony Sid
TTITLE2=Did Ye Get Healed ?
TTITLE3=It's All In The Game
TTITLE4=I Believe To My Soul
TTITLE5=Whenever God Shines His Light
TTITLE6=Sweet Thing
TTITLE7=Raincheck
TTITLE8=Hungry For Your Love
TTITLE9=See Me Through > Soldier Of Fortune > Thank You Falletinme Be 
TTITLE9=Mice Elf Again
TTITLE10=Ain't That Loving You Baby
TTITLE11=Jackie Wilson Said ...
TTITLE12=Stormy Monday
EXTD=
EXTT0=
EXTT1=
EXTT2=
EXTT3=
EXTT4=
EXTT5=
EXTT6=
EXTT7=
EXTT8=
EXTT9=
EXTT10=
EXTT11=
EXTT12=
PLAYORDER=
